<?xml version="1.0" encoding="UTF-8"?>
<svg width="21px" height="19px" viewBox="0 0 21 19" version="1.1" xmlns="http://www.w3.org/2000/svg" xmlns:xlink="http://www.w3.org/1999/xlink">
    <title>Shape</title>
    <g id="Page-1" stroke="none" stroke-width="1" fill="none" fill-rule="evenodd">
        <g id="list-players" transform="translate(-217.000000, -720.000000)" fill="#FFFFFF" fill-rule="nonzero">
            <g id="Group-3" transform="translate(198.000000, 700.000000)">
                <g id="cards-outline" transform="translate(19.000000, 20.000000)">
                    <path d="M9.37042884,0 C9.11042884,0 8.85042884,0.06 8.60042884,0.15 L1.24042884,3.2 C0.220428844,3.62 -0.269571156,4.79 0.150428844,5.8 L5.11042884,17.75 C5.42042884,18.52 6.15042884,18.98 6.92042884,19 C7.18042884,19 7.45042884,18.97 7.71042884,18.85 L15.0804288,15.8 C15.8304288,15.49 16.2904288,14.75 16.3104288,14 C16.3204288,13.75 16.2704288,13.46 16.1804288,13.2 L11.1804288,1.25 C10.8904288,0.48 10.1504288,0.01 9.37042884,0 M12.8504288,0 L16.3004288,8.35 L16.3004288,2 C16.3004288,0.8954305 15.4049983,0 14.3004288,0 M18.3104288,1.54 L18.3104288,10.57 L20.7404288,4.71 C21.1504288,3.69 20.6804288,2.53 19.6504288,2.11 M9.37042884,1.97 L14.3504288,13.99 L6.96042884,17.05 L1.98042884,5.04" id="Shape"></path>
                </g>
            </g>
        </g>
    </g>
</svg>