<?xml version="1.0" encoding="UTF-8"?>
<svg width="16px" height="18px" viewBox="0 0 16 18" version="1.1" xmlns="http://www.w3.org/2000/svg" xmlns:xlink="http://www.w3.org/1999/xlink">
    <title>Shape</title>
    <g id="Page-1" stroke="none" stroke-width="1" fill="none" fill-rule="evenodd">
        <g id="list-players" transform="translate(-307.000000, -294.000000)" fill="#BA0000" fill-rule="nonzero">
            <g id="Group-2" transform="translate(31.000000, 267.000000)">
                <g id="trash-can-outline" transform="translate(276.000000, 27.000000)">
                    <path d="M5,0 L5,1 L0,1 L0,3 L1,3 L1,16 C1,17.1045695 1.8954305,18 3,18 L13,18 C14.1045695,18 15,17.1045695 15,16 L15,3 L16,3 L16,1 L11,1 L11,0 L5,0 M3,3 L13,3 L13,16 L3,16 L3,3 M5,5 L5,14 L7,14 L7,5 L5,5 M9,5 L9,14 L11,14 L11,5 L9,5 Z" id="Shape"></path>
                </g>
            </g>
        </g>
    </g>
</svg>